<svg id="Layer_3" enable-background="new 0 0 64 64" height="512" viewBox="0 0 64 64" width="512" xmlns="http://www.w3.org/2000/svg"><g><path d="m45 31.5c0-3.768-1.836-7.317-4.91-9.495l-6.36-4.505 5.136-3.638c3.841-2.721 6.134-7.155 6.134-11.862h-2c0 1.746-.386 3.44-1.066 5h-6.076c-.447-1.72-1.999-3-3.858-3s-3.411 1.28-3.858 3h-6.076c-.68-1.56-1.066-3.254-1.066-5h-2c0 4.707 2.293 9.141 6.134 11.862l5.136 3.638-6.36 4.505c-3.074 2.178-4.91 5.727-4.91 9.495 0 3.769 1.836 7.318 4.91 9.495l6.359 4.505-4.319 3.06c-4.351 3.083-6.95 8.107-6.95 13.44h2c0-1.728.315-3.418.899-5h6.243c.447 1.721 1.999 3 3.858 3s3.411-1.279 3.858-3h6.243c.584 1.582.899 3.272.899 5h2c0-5.333-2.599-10.357-6.95-13.44l-4.319-3.06 6.359-4.505c3.074-2.177 4.91-5.726 4.91-9.495zm-13-25.5c1.103 0 2 .897 2 2s-.897 2-2 2-2-.897-2-2 .897-2 2-2zm-5.71 6.23c-1.253-.887-2.312-1.987-3.149-3.23h5.001c.447 1.72 1.999 3 3.858 3s3.411-1.28 3.858-3h5.001c-.836 1.243-1.896 2.343-3.149 3.23l-5.71 4.045zm-1.224 11.407 6.934-4.912 6.934 4.911c.922.653 1.703 1.458 2.333 2.363h-7.408c-.447-1.72-1.999-3-3.858-3s-3.411 1.28-3.858 3h-3.408c.628-.904 1.41-1.709 2.331-2.362zm6.934 3.363c0 1.103-.897 2-2 2s-2-.897-2-2 .897-2 2-2 2 .897 2 2zm-10.333 1h4.475c.447 1.72 1.999 3 3.858 3s3.411-1.28 3.858-3h8.475c.431 1.103.667 2.286.667 3.5 0 1.59-.399 3.131-1.123 4.5h-4.019c-.447-1.721-1.999-3-3.858-3s-3.411 1.279-3.858 3h-8.019c-.724-1.369-1.123-2.91-1.123-4.5 0-1.214.236-2.397.667-3.5zm14.333 9c0 1.103-.897 2-2 2s-2-.897-2-2 .897-2 2-2 2 .897 2 2zm-4 21c-1.103 0-2-.897-2-2s.897-2 2-2 2 .897 2 2-.897 2-2 2zm4.894-7.808c1.796 1.273 3.236 2.931 4.276 4.808h-5.312c-.447-1.721-1.999-3-3.858-3s-3.411 1.279-3.858 3h-5.312c1.039-1.877 2.48-3.535 4.276-4.808l4.894-3.466zm2.04-10.83-6.934 4.912-6.934-4.912c-.564-.399-1.068-.862-1.526-1.362h6.602c.447 1.721 1.999 3 3.858 3s3.411-1.279 3.858-3h2.602c-.458.5-.962.963-1.526 1.362z"/><path d="m60 7c-1.654 0-3 1.346-3 3 0 .462.113.894.301 1.285l-2.015 2.015c-.392-.187-.824-.3-1.286-.3-1.302 0-2.402.839-2.816 2h-3.369c-.414-1.161-1.514-2-2.816-2-1.654 0-3 1.346-3 3s1.346 3 3 3c1.302 0 2.402-.839 2.816-2h3.369c.302.847.969 1.514 1.816 1.816v3.369c-1.161.414-2 1.514-2 2.816 0 1.654 1.346 3 3 3s3-1.346 3-3c0-1.302-.839-2.402-2-2.816v-3.369c1.161-.414 2-1.514 2-2.816 0-.462-.113-.894-.301-1.285l2.015-2.015c.392.187.824.3 1.286.3 1.654 0 3-1.346 3-3s-1.346-3-3-3zm-15 10c-.552 0-1-.449-1-1s.448-1 1-1 1 .449 1 1-.448 1-1 1zm9 9c-.552 0-1-.449-1-1s.448-1 1-1 1 .449 1 1-.448 1-1 1zm0-9c-.552 0-1-.449-1-1s.448-1 1-1 1 .449 1 1-.448 1-1 1zm6-6c-.552 0-1-.449-1-1s.448-1 1-1 1 .449 1 1-.448 1-1 1z"/><path d="m12.816 47h3.369c.414 1.161 1.514 2 2.816 2 1.654 0 3-1.346 3-3s-1.346-3-3-3c-1.302 0-2.402.839-2.816 2h-3.369c-.414-1.161-1.514-2-2.816-2-.462 0-.894.113-1.285.301l-2.015-2.015c.187-.392.3-.824.3-1.286 0-1.654-1.346-3-3-3s-3 1.346-3 3 1.346 3 3 3c.462 0 .894-.113 1.285-.301l2.015 2.015c-.187.392-.3.824-.3 1.286 0 1.302.839 2.402 2 2.816v3.369c-1.161.413-2 1.513-2 2.815 0 1.654 1.346 3 3 3s3-1.346 3-3c0-1.302-.839-2.402-2-2.816v-3.369c.847-.301 1.514-.968 1.816-1.815zm6.184-2c.552 0 1 .448 1 1s-.448 1-1 1-1-.448-1-1 .448-1 1-1zm-8 1c0 .552-.448 1-1 1s-1-.448-1-1 .448-1 1-1 1 .448 1 1zm-8-6c0-.552.448-1 1-1s1 .448 1 1-.448 1-1 1-1-.448-1-1zm7 16c-.552 0-1-.448-1-1s.448-1 1-1 1 .448 1 1-.448 1-1 1z"/></g></svg>