<svg id="Capa_1" enable-background="new 0 0 512 512" height="512" viewBox="0 0 512 512" width="512" xmlns="http://www.w3.org/2000/svg"><g><path d="m498.098 367.248h-58.408v-69.443c0-4.143-3.357-7.5-7.5-7.5h-153.045c-2.402-7.393-8.251-13.243-15.645-15.645v-46.298h55.986c9 0 16.322-7.322 16.322-16.322v-35.845h78.11c19.089 0 35.757-15.195 35.885-35.681 0-23.302-18.188-42.554-41.409-43.829-.946-.053-1.793-.846-1.969-1.848-5.584-31.831-39.431-50.863-69.424-39.587-1.227.464-2.646-.049-3.104-1.265-12.105-32.29-43.41-53.985-77.897-53.985-34.488 0-65.793 21.695-77.899 53.984-.459 1.223-1.881 1.725-3.103 1.266-30-11.276-63.84 7.757-69.425 39.587-.176 1.001-1.021 1.795-1.968 1.848-22.739 1.249-41.466 19.95-41.408 44.238.179 19.449 16.275 35.271 35.883 35.271h78.111v35.845c0 9 7.322 16.322 16.322 16.322h55.987v46.298c-7.394 2.402-13.244 8.252-15.646 15.645h-153.045c-4.143 0-7.5 3.357-7.5 7.5v69.443c-11.049 0-43.506 0-55.985 0-9.002.001-16.324 7.323-16.324 16.323v112.106c0 9.002 7.322 16.324 16.323 16.324h126.972c9 0 16.322-7.322 16.322-16.323 0-11.13 0-102.994 0-114.526 0-7.666-6.236-13.902-13.902-13.902h-58.406v-61.943h145.545c2.402 7.394 8.252 13.243 15.646 15.645v46.298c-11.049 0-43.506 0-55.986 0-9 0-16.322 7.322-16.322 16.322v112.106c0 9.001 7.322 16.323 16.322 16.323h45.986c4.143 0 7.5-3.357 7.5-7.5s-3.357-7.5-7.5-7.5h-45.986c-.729 0-1.322-.594-1.322-1.323v-112.107c0-.729.593-1.322 1.322-1.322h30.125c.478 0 .919.259 1.153.674l12.153 21.586c2.888 5.129 8.338 8.314 14.224 8.314h69.317c.729 0 1.322.594 1.322 1.323v81.531c0 .729-.593 1.323-1.322 1.323h-45.986c-4.143 0-7.5 3.357-7.5 7.5s3.357 7.5 7.5 7.5h45.986c9 0 16.322-7.322 16.322-16.323 0-11.13 0-102.994 0-114.526 0-7.666-6.236-13.902-13.902-13.902h-58.406v-46.298c7.394-2.402 13.243-8.252 15.645-15.645h145.545v61.943c-11.049 0-43.506 0-55.985 0-9.001 0-16.323 7.322-16.323 16.322v112.106c0 9.001 7.322 16.323 16.323 16.323h126.972c9.001 0 16.323-7.322 16.323-16.323v-28.291c0-4.143-3.357-7.5-7.5-7.5s-7.5 3.357-7.5 7.5v28.291c0 .729-.594 1.323-1.323 1.323h-126.972c-.729 0-1.323-.594-1.323-1.323v-112.106c0-.729.594-1.322 1.323-1.322h30.125c.477 0 .918.259 1.152.674l12.153 21.585c2.887 5.129 8.337 8.315 14.224 8.315h69.317c.729 0 1.323.594 1.323 1.323v18.24c0 4.143 3.357 7.5 7.5 7.5s7.5-3.357 7.5-7.5c0-15.383 0-36.043 0-51.235.001-7.666-6.235-13.902-13.901-13.902zm-353.481 128.429c0 .729-.593 1.323-1.322 1.323h-126.972c-.729 0-1.323-.594-1.323-1.323v-112.107c0-.729.594-1.322 1.323-1.322h30.125c.477 0 .918.259 1.152.674l12.153 21.585c2.887 5.129 8.337 8.315 14.224 8.315h69.317c.729 0 1.322.594 1.322 1.323v81.532zm0-113.429v15.627c-.437-.035-.877-.053-1.322-.053h-69.317c-.477 0-.918-.258-1.152-.674l-8.39-14.9zm176.192-268.011c-.437-.035-.877-.053-1.322-.053h-69.317c-.478 0-.919-.259-1.153-.674l-8.389-14.9h80.182v15.627zm-144.618-14.304v61.262h-78.111c-11.204 0-20.842-8.912-20.884-20.681 0-15.34 11.962-28.013 27.231-28.853 7.854-.431 14.548-6.416 15.919-14.232 3.952-22.522 28.122-36.127 49.373-28.138 8.963 3.369 19.041-1.017 22.426-10.04 9.924-26.468 35.585-44.251 63.855-44.251s53.93 17.783 63.854 44.252c3.378 9.004 13.444 13.415 22.426 10.039 21.253-7.993 45.423 5.623 49.372 28.136 1.37 7.817 8.065 13.804 15.921 14.234 15.22.837 27.342 13.485 27.229 29.124-.104 11.254-9.472 20.409-20.883 20.409h-78.11c0-6.267 0-56.789 0-63.682v-.001c0-7.666-6.236-13.902-13.902-13.902h-129.393c-9 0-16.323 7.323-16.323 16.324zm16.323 113.428c-.729 0-1.322-.593-1.322-1.322 0-12.784 0-100.503 0-112.106 0-.729.593-1.322 1.322-1.322h30.125c.478 0 .919.259 1.153.674l12.153 21.586c2.888 5.129 8.338 8.314 14.224 8.314h69.317c.729 0 1.322.593 1.322 1.322v81.532c0 .729-.593 1.322-1.322 1.322zm128.295 168.887v15.627c-.437-.035-.877-.053-1.322-.053h-69.317c-.478 0-.919-.259-1.153-.674l-8.389-14.9zm-64.809-75.11c-5.146 0-9.334-4.187-9.334-9.333s4.188-9.333 9.334-9.333 9.333 4.187 9.333 9.333-4.187 9.333-9.333 9.333zm241 90.737c-.437-.035-.878-.053-1.323-.053h-69.317c-.477 0-.918-.258-1.152-.674l-8.39-14.9h80.182z"/></g></svg>